<?xml version="1.0" encoding="iso-8859-1"?>
<!-- Generator: Adobe Illustrator 19.0.0, SVG Export Plug-In . SVG Version: 6.00 Build 0)  -->
<svg version="1.1" id="Capa_1" xmlns="http://www.w3.org/2000/svg" xmlns:xlink="http://www.w3.org/1999/xlink" x="0px" y="0px"
	 viewBox="0 0 498.888 498.888" style="enable-background:new 0 0 498.888 498.888;" xml:space="preserve">
<circle style="fill:#FEA82F;" cx="249.448" cy="105.444" r="96"/>
<path style="fill:#FF8031;" d="M249.448,177.444c-48.944,0-89.256-36.656-95.168-84c-0.496,3.936-0.832,7.928-0.832,12
	c0,53.016,42.984,96,96,96s96-42.984,96-96c0-4.072-0.336-8.064-0.832-12C338.704,140.788,298.392,177.444,249.448,177.444z"/>
<polygon style="fill:#FEA82F;" points="473.448,393.444 425.448,393.444 409.448,297.444 105.448,297.444 89.448,393.444 
	25.448,393.444 9.448,489.444 489.448,489.444 "/>
<g>
	<polygon style="fill:#FF8031;" points="321.448,489.444 305.448,393.444 209.448,393.444 193.448,489.444 	"/>
	<polygon style="fill:#FF8031;" points="161.448,489.444 145.448,393.444 49.448,393.444 33.448,489.444 	"/>
	<polygon style="fill:#FF8031;" points="241.448,393.444 225.448,297.444 129.448,297.444 113.448,393.444 	"/>
</g>
<g>
	<polygon style="fill:#FCD770;" points="297.448,489.444 281.448,393.444 185.448,393.444 169.448,489.444 	"/>
	<polygon style="fill:#FCD770;" points="137.448,489.444 121.448,393.444 25.448,393.444 9.448,489.444 	"/>
	<polygon style="fill:#FCD770;" points="217.448,393.444 201.448,297.444 105.448,297.444 89.448,393.444 	"/>
</g>
<g>
	<circle style="fill:#48C397;" cx="385.448" cy="153.444" r="16"/>
	<circle style="fill:#48C397;" cx="49.448" cy="329.444" r="16"/>
</g>
<path d="M480.224,385.444h-48l-16-96H98.672l-16,96h-64L0,497.444h498.888L480.224,385.444z M112.224,305.444h82.448l13.336,80
	H98.888L112.224,305.444z M274.672,401.444l13.336,80h-109.12l13.336-80H274.672z M162.672,481.444h-18.448l-13.336-80H176
	L162.672,481.444z M32.224,401.444h82.448l13.336,80H18.896L32.224,401.444z M304.224,481.444l-13.336-80h14.56v-16h-81.224
	l-13.336-80h191.776l13.336,80h-94.552v16h145.224l13.336,80H304.224z"/>
<path d="M385.448,177.444c4.088,0,7.88-1.12,11.248-2.928c28.808,34.472,44.752,77.8,44.752,122.928
	c0,7.536-0.44,15.144-1.312,22.592l15.888,1.856c0.944-8.064,1.424-16.288,1.424-24.448c0-49.608-17.752-97.224-49.84-134.832
	c1.176-2.832,1.84-5.92,1.84-9.168c0-13.232-10.768-24-24-24s-24,10.768-24,24S372.216,177.444,385.448,177.444z M385.448,145.444
	c4.408,0,8,3.584,8,8s-3.592,8-8,8s-8-3.584-8-8S381.04,145.444,385.448,145.444z"/>
<path d="M49.448,353.444c13.232,0,24-10.768,24-24c0-10.28-6.52-18.992-15.624-22.408c-0.152-3.2-0.376-6.392-0.376-9.592
	c0-48.872,18.376-95.448,51.752-131.136l-11.688-10.92c-36.152,38.656-56.064,89.104-56.064,142.056c0,3.128,0.232,6.232,0.368,9.36
	c-9.48,3.208-16.368,12.088-16.368,22.64C25.448,342.676,36.216,353.444,49.448,353.444z M49.448,321.444c4.408,0,8,3.584,8,8
	s-3.592,8-8,8c-4.408,0-8-3.584-8-8S45.04,321.444,49.448,321.444z"/>
<path d="M249.448,65.444c8.824,0,16,7.176,16,16h16c0-14.872-10.24-27.288-24-30.864V33.444h-16V50.58
	c-13.76,3.576-24,15.992-24,30.864c0,17.648,14.352,32,32,32c8.824,0,16,7.176,16,16s-7.176,16-16,16s-16-7.176-16-16h-16
	c0,14.872,10.24,27.288,24,30.864v17.136h16v-17.136c13.76-3.576,24-15.992,24-30.864c0-17.648-14.352-32-32-32
	c-8.824,0-16-7.176-16-16S240.624,65.444,249.448,65.444z"/>
<rect x="305.448" y="97.444" width="16" height="16"/>
<rect x="177.448" y="97.444" width="16" height="16"/>
<path d="M433.656,351.772l15.352,4.512c1.656-5.616,3.072-11.352,4.232-17.024l-15.68-3.192
	C436.496,341.3,435.184,346.588,433.656,351.772z"/>
<path d="M134.232,143.844l-9.6-12.8c-4.992,3.744-9.88,7.776-14.528,11.976l10.728,11.872
	C125.12,151.012,129.624,147.292,134.232,143.844z"/>
<path d="M249.448,209.444c25.632,0,50.256-9.408,69.336-26.488l-10.672-11.92c-16.144,14.448-36.976,22.408-58.664,22.408
	c-48.52,0-88-39.48-88-88s39.48-88,88-88s88,39.48,88,88c0,18.552-5.712,36.304-16.512,51.328l12.992,9.344
	c12.768-17.768,19.52-38.744,19.52-60.672c0-57.344-46.656-104-104-104s-104,46.656-104,104S192.104,209.444,249.448,209.444z"/>
<g>
</g>
<g>
</g>
<g>
</g>
<g>
</g>
<g>
</g>
<g>
</g>
<g>
</g>
<g>
</g>
<g>
</g>
<g>
</g>
<g>
</g>
<g>
</g>
<g>
</g>
<g>
</g>
<g>
</g>
</svg>
