<svg height="512" viewBox="0 0 64 64" width="512" xmlns="http://www.w3.org/2000/svg"><g id="bank-bitcoin"><path d="m28 24h8v25h-8z" fill="#e0e0e2"/><path d="m3 57h19v4h-19z" fill="#ffd422"/><path d="m3 53h19v4h-19z" fill="#ffeb99"/><path d="m8 24h8v29h-8z" fill="#e0e0e2"/><path d="m48 24h8v29h-8z" fill="#e0e0e2"/><path d="m42 53h19v4h-19z" fill="#ffeb99"/><path d="m42 57h19v4h-19z" fill="#ffd422"/><path d="m22 57h20v4h-20z" fill="#ffeb99"/><path d="m22 53h20v4h-20z" fill="#ffd422"/><path d="m42 49v4h-20v-4h10z" fill="#ffeb99"/><path d="m5 19h54v5h-54z" fill="#787680"/><path d="m61 11v8h-58v-8l29-8z" fill="#e0e0e2"/><circle cx="32" cy="39" fill="#ff9811" r="10"/><circle cx="32" cy="11" fill="#fff" r="5"/><path d="m33.149 6.145a4.972 4.972 0 0 1 -4.3 8.71 4.986 4.986 0 1 0 4.3-8.71z" fill="#898890"/><path d="m32 17a6 6 0 1 0 -6-6 6.006 6.006 0 0 0 6 6zm0-10a4 4 0 1 1 -4 4 4 4 0 0 1 4-4z"/><path d="m59 25a1 1 0 0 0 1-1v-4h1a1 1 0 0 0 1-1v-8a1 1 0 0 0 -.73-.96l-29-8a.991.991 0 0 0 -.54 0l-29 8a1 1 0 0 0 -.73.96v8a1 1 0 0 0 1 1h1v4a1 1 0 0 0 1 1h2v27h-4a1 1 0 0 0 -1 1v8a1 1 0 0 0 1 1h58a1 1 0 0 0 1-1v-8a1 1 0 0 0 -1-1h-4v-27zm-55-7v-6.24l28-7.72 28 7.72v6.24zm17 42h-17v-2h17zm0-4h-17v-2h17zm-12-4v-27h6v27zm12-3v3h-4v-27h10v4.21a10.978 10.978 0 0 0 -1.3 18.79h-3.7a1 1 0 0 0 -1 1zm11-19a9 9 0 1 1 -9 9 9.014 9.014 0 0 1 9-9zm-3-1.57v-3.43h6v3.43a10.68 10.68 0 0 0 -6 0zm12 31.57h-18v-2h18zm0-4h-18v-2h18zm0-4h-18v-2h18zm1-4h-3.7a10.978 10.978 0 0 0 -1.3-18.79v-4.21h10v27h-4v-3a1 1 0 0 0 -1-1zm18 12h-17v-2h17zm0-6v2h-17v-2zm-11-2v-27h6v27zm-43-29v-3h52v3z"/><path d="m29 45h2v-1h2v1h2v-1.18a3.01 3.01 0 0 0 2-2.82 2.974 2.974 0 0 0 -.78-2 2.974 2.974 0 0 0 .78-2 3.01 3.01 0 0 0 -2-2.82v-1.18h-2v1h-2v-1h-2v1h-2v2h1v6h-1v2h2zm1-9h4a1 1 0 0 1 0 2h-4zm0 4h4a1 1 0 0 1 0 2h-4z"/></g></svg>