<svg id="Capa_1" enable-background="new 0 0 512 512" height="512" viewBox="0 0 512 512" width="512" xmlns="http://www.w3.org/2000/svg"><g><g><g><path d="m211.097 478.23 181.033-104.52c4.659-2.69 7.528-7.66 7.528-13.04v-208.872c0-2.69-.717-5.277-2.017-7.528l-388.141-.079c-1.303 2.253-2.022 4.844-2.022 7.537v208.942c0 5.379 2.87 10.35 7.528 13.04l181.034 104.52c4.658 2.689 10.398 2.689 15.057 0z" fill="#786e79"/></g><g><path d="m399.659 151.798c0-2.721-.737-5.337-2.066-7.607l-194.067 112.045v224.009c2.614.007 5.229-.664 7.571-2.016l181.033-104.519c4.658-2.69 7.528-7.66 7.528-13.04v-208.872z" fill="#554e57"/></g><g><path d="m397.593 144.192-28.186 16.273v180.61c0 5.379-2.87 10.35-7.528 13.039l-158.353 91.425v34.707c2.614.007 5.229-.664 7.571-2.016l181.033-104.52c4.659-2.69 7.528-7.66 7.528-13.039v-208.873c.001-2.721-.736-5.337-2.065-7.606z" fill="#453e43"/></g><g><g><path d="m10.577 369.82c-.527-.688-.967-1.433-1.367-2.2.399.767.84 1.512 1.367 2.2z" fill="#b1abb5"/></g><g><path d="m203.547 256.224 194.046-112.032c-1.298-2.217-3.161-4.104-5.463-5.433l-181.011-104.508c-4.657-2.689-10.394-2.69-15.052-.003l-181.056 104.437c-2.329 1.343-4.211 3.257-5.511 5.506z" fill="#b1abb5"/></g><g><path d="m8.16 365.07c-.24-.784-.44-1.583-.55-2.406.11.823.31 1.622.55 2.406z" fill="#b1abb5"/></g></g></g><g><path d="m294.93 264.005c0 57.062 45.606 103.469 102.356 104.767 1.521-2.381 2.373-5.179 2.373-8.101v-201.463c-57.847.037-104.729 46.942-104.729 104.797z" fill="#f88604"/></g><g><path d="m369.407 163.669v177.405c0 5.379-2.87 10.35-7.529 13.039l-7.552 4.36c13.048 6.282 27.593 9.946 42.959 10.297 0 0 0 0 0-.001.185-.29.359-.586.524-.888.011-.02.021-.04.032-.06.152-.28.294-.566.428-.856.018-.039.036-.079.054-.118.122-.27.235-.544.341-.821.022-.058.045-.117.066-.175.095-.258.182-.521.263-.785.023-.077.048-.153.07-.231.072-.248.134-.498.193-.751.022-.093.046-.185.066-.278.052-.242.094-.487.134-.732.017-.102.037-.204.051-.307.035-.249.06-.501.082-.753.009-.098.022-.195.029-.294.024-.342.037-.686.038-1.032 0-.006.001-.013.001-.02v-201.46c-10.518.007-20.672 1.57-30.25 4.461z" fill="#f16600"/></g><g><path d="m403.797 86.11c-1.484 0-2.428.399-3.078 1.026-.606.585-1.06 1.781-1.06 2.966v205.524s.001.001.001.001c57.909.037 104.865-46.897 104.865-104.798 0-56.514-44.736-102.581-100.728-104.719z" fill="#fba615"/></g><g><path d="m462.325 106.775c13.044 17.473 20.773 39.146 20.773 62.628 0 50.559-35.804 92.752-83.439 102.616v23.608s.001.001.001.001c57.909.037 104.865-46.897 104.865-104.798 0-34.412-16.586-64.949-42.2-84.055z" fill="#f88604"/></g><path d="m465.095 190.993c1.708-2.894 2.707-6.255 2.707-9.853 0-10.735-8.733-19.467-19.466-19.467h-15.138c-4.128 0-7.475 3.346-7.475 7.475v52.114c0 1.988.792 3.894 2.201 5.298 1.401 1.395 3.298 2.177 5.274 2.177h.033c.001 0 13.914-.061 17.748-.061 11.856 0 21.502-9.646 21.502-21.502 0-6.454-2.87-12.237-7.386-16.181zm-16.76-14.37c2.49 0 4.516 2.026 4.516 4.517s-2.026 4.516-4.516 4.516c-1.144 0-7.663.015-7.663.015v-9.048zm2.644 37.102c-1.917 0-6.345.016-10.306.03v-13.128l10.306-.007c3.613 0 6.552 2.939 6.552 6.552 0 3.614-2.939 6.553-6.552 6.553z"/><path d="m512 190.83c0-29.231-11.174-56.911-31.462-77.942-20.235-20.975-47.372-33.665-76.456-34.247-6.489-.13-11.898 3.245-11.898 11.462v40.056l-177.327-102.381c-6.945-4.009-15.576-4.013-22.525-.006l-181.056 104.437c-3.419 1.973-6.271 4.822-8.247 8.24-1.98 3.423-3.026 7.324-3.026 11.279v208.942c-.114 5.699 3.351 15.261 11.266 19.513l181.034 104.521c5.705 3.401 16.712 3.338 22.531 0l20.919-12.078c3.575-2.064 4.8-6.636 2.736-10.211-2.064-3.576-6.638-4.798-10.211-2.736l-17.277 9.975v-209.102l91.676-52.929c-9.673 16.58-15.222 35.846-15.222 56.382 0 29.533 11.375 57.42 32.029 78.523 15.789 16.133 35.655 26.925 57.312 31.403l-116.522 67.274c-3.575 2.064-4.8 6.636-2.736 10.211 2.207 2.747 5.234 5.108 10.211 2.736l128.118-73.969c.004-.003.008-.006.013-.008 6.942-4.013 11.253-11.485 11.253-19.505v-57.814c27.189-1.759 52.511-13.178 71.958-32.613 21.222-21.209 32.909-49.411 32.909-79.413zm-308.453 56.762-113.372-65.455c-3.575-2.064-8.147-.84-10.211 2.736-2.064 3.575-.839 8.147 2.736 10.211l113.351 65.443v209.078l-177.308-102.369c-1.328-.966-3.622-2.611-3.791-6.566v-204.7l34.037 19.651c3.575 2.062 8.146.839 10.211-2.736 2.064-3.575.839-8.147-2.736-10.211l-34.025-19.644 177.363-102.307c2.338-1.35 5.242-1.348 7.58.002l177.235 102.327zm98.858 16.413c0-51.112 39.632-93.168 89.779-97.033v193.698c0 .122-.018.241-.024.362-49.958-3.903-89.755-46.356-89.755-97.027zm104.729 23.872v-194.093c50.709 3.78 89.916 45.731 89.916 97.046 0 26.007-10.131 50.454-28.526 68.838-16.624 16.614-38.194 26.475-61.39 28.209z"/></g></svg>