<?xml version="1.0" encoding="iso-8859-1"?>
<!-- Generator: Adobe Illustrator 19.0.0, SVG Export Plug-In . SVG Version: 6.00 Build 0)  -->
<svg version="1.1" id="Capa_1" xmlns="http://www.w3.org/2000/svg" xmlns:xlink="http://www.w3.org/1999/xlink" x="0px" y="0px"
	 viewBox="0 0 512 512" style="enable-background:new 0 0 512 512;" xml:space="preserve">
<g>
	<path style="fill:#939598;" d="M42.667,503.467H281.6c18.85,0,34.133-15.283,34.133-34.133v-17.067H8.533v17.067
		C8.533,488.184,23.817,503.467,42.667,503.467z"/>
	<path style="fill:#939598;" d="M315.733,42.667c0-18.85-15.283-34.133-34.133-34.133H42.667c-18.85,0-34.133,15.283-34.133,34.133
		v17.067h307.2V42.667z"/>
</g>
<g>
	<rect x="426.667" y="170.667" style="fill:#FFAF46;" width="17.067" height="17.067"/>
	<rect x="281.6" y="170.667" style="fill:#FFAF46;" width="17.067" height="17.067"/>
	<rect x="281.6" y="324.267" style="fill:#FFAF46;" width="17.067" height="17.067"/>
</g>
<g>
	<path style="fill:#231F20;" d="M281.6,0H42.667C19.115,0.026,0.026,19.115,0,42.667v426.667
		C0.026,492.885,19.115,511.974,42.667,512H281.6c23.552-0.026,42.641-19.115,42.667-42.667v-42.667c0-4.71-3.823-8.533-8.533-8.533
		c-4.71,0-8.533,3.823-8.533,8.533v17.067H17.067V68.267H307.2v25.6c0,4.71,3.823,8.533,8.533,8.533c4.71,0,8.533-3.823,8.533-8.533
		v-51.2C324.241,19.115,305.152,0.026,281.6,0z M307.2,460.8v8.533c0,14.14-11.46,25.6-25.6,25.6H42.667
		c-14.14,0-25.6-11.46-25.6-25.6V460.8H307.2z M17.067,51.2v-8.533c0-14.14,11.46-25.6,25.6-25.6H281.6
		c14.14,0,25.6,11.46,25.6,25.6V51.2H17.067z"/>
	<path style="fill:#231F20;" d="M187.733,486.4h-51.2c-4.71,0-8.533-3.823-8.533-8.533s3.823-8.533,8.533-8.533h51.2
		c4.71,0,8.533,3.823,8.533,8.533S192.444,486.4,187.733,486.4z"/>
	<polygon style="fill:#231F20;" points="230.4,162.133 213.333,162.133 213.333,102.4 273.067,102.4 273.067,119.467 230.4,119.467 
			"/>
	<polygon style="fill:#231F20;" points="512,162.133 494.933,162.133 494.933,119.467 452.267,119.467 452.267,102.4 512,102.4 	"/>
	<polygon style="fill:#231F20;" points="273.067,409.6 213.333,409.6 213.333,349.867 230.4,349.867 230.4,392.533 273.067,392.533 
			"/>
	<polygon style="fill:#231F20;" points="512,409.6 452.267,409.6 452.267,392.533 494.933,392.533 494.933,349.867 512,349.867 	"/>
	<path style="fill:#231F20;" d="M213.333,42.667h-51.2c-4.71,0-8.533-3.823-8.533-8.533s3.823-8.533,8.533-8.533h51.2
		c4.71,0,8.533,3.823,8.533,8.533S218.044,42.667,213.333,42.667z"/>
	<path style="fill:#231F20;" d="M128,42.667h-17.067c-4.71,0-8.533-3.823-8.533-8.533s3.823-8.533,8.533-8.533H128
		c4.71,0,8.533,3.823,8.533,8.533S132.71,42.667,128,42.667z"/>
</g>
<g>
	<path style="fill:#FFAF46;" d="M146.014,251.597c11.785-14.473,9.6-35.755-4.873-47.539c-3.849-3.132-8.329-5.376-13.141-6.579
		v-9.745c0-4.71-3.823-8.533-8.533-8.533c-4.71,0-8.533,3.823-8.533,8.533v8.533H102.4v-8.533c0-4.71-3.823-8.533-8.533-8.533
		c-4.71,0-8.533,3.823-8.533,8.533v8.533h-25.6c-4.71,0-8.533,3.823-8.533,8.533c0,4.71,3.823,8.533,8.533,8.533h8.533v102.4h-8.533
		c-4.71,0-8.533,3.823-8.533,8.533s3.823,8.533,8.533,8.533h25.6v8.533c0,4.71,3.823,8.533,8.533,8.533
		c4.71,0,8.533-3.823,8.533-8.533V332.8h8.533v8.533c0,4.71,3.823,8.533,8.533,8.533c4.71,0,8.533-3.823,8.533-8.533V332.8
		c23.518,0.043,42.615-18.978,42.667-42.496C170.701,273.698,161.075,258.586,146.014,251.597z M136.533,230.4
		c0,9.429-7.637,17.067-17.067,17.067H85.333v-34.133h34.133C128.896,213.333,136.533,220.971,136.533,230.4z M128,315.733H85.333
		v-51.2H128c14.14,0,25.6,11.46,25.6,25.6C153.6,304.273,142.14,315.733,128,315.733z"/>
	<path style="fill:#FFAF46;" d="M392.533,136.533v85.333h85.333v-85.333H392.533z M460.8,204.8h-51.2v-51.2h51.2V204.8z"/>
	<rect x="418.133" y="162.133" style="fill:#FFAF46;" width="34.133" height="34.133"/>
	<path style="fill:#FFAF46;" d="M332.8,136.533h-85.333v85.333H332.8V136.533z M315.733,204.8h-51.2v-51.2h51.2V204.8z"/>
	<rect x="273.067" y="162.133" style="fill:#FFAF46;" width="34.133" height="34.133"/>
	<path style="fill:#FFAF46;" d="M247.467,375.467H332.8v-85.333h-85.333V375.467z M264.533,307.2h51.2v51.2h-51.2V307.2z"/>
	<rect x="273.067" y="315.733" style="fill:#FFAF46;" width="34.133" height="34.133"/>
	<polygon style="fill:#FFAF46;" points="409.6,298.667 409.6,315.733 460.8,315.733 460.8,358.4 443.733,358.4 443.733,324.267 
		392.533,324.267 392.533,341.333 426.667,341.333 426.667,375.467 477.867,375.467 477.867,298.667 	"/>
	<polygon style="fill:#FFAF46;" points="281.6,264.533 264.533,264.533 264.533,247.467 281.6,247.467 281.6,230.4 247.467,230.4 
		247.467,281.6 281.6,281.6 	"/>
	<polygon style="fill:#FFAF46;" points="358.4,307.2 375.467,307.2 375.467,290.133 341.333,290.133 341.333,341.333 
		366.933,341.333 366.933,358.4 341.333,358.4 341.333,375.467 384,375.467 384,324.267 358.4,324.267 	"/>
	<rect x="392.533" y="358.4" style="fill:#FFAF46;" width="17.067" height="17.067"/>
	<rect x="409.6" y="273.067" style="fill:#FFAF46;" width="17.067" height="17.067"/>
	<rect x="460.8" y="273.067" style="fill:#FFAF46;" width="17.067" height="17.067"/>
	<rect x="435.2" y="273.067" style="fill:#FFAF46;" width="17.067" height="17.067"/>
	<polygon style="fill:#FFAF46;" points="460.8,247.467 443.733,247.467 443.733,230.4 426.667,230.4 426.667,247.467 409.6,247.467 
		409.6,230.4 384,230.4 384,247.467 384,307.2 401.067,307.2 401.067,264.533 477.867,264.533 477.867,230.4 460.8,230.4 	"/>
	<rect x="341.333" y="136.533" style="fill:#FFAF46;" width="42.667" height="17.067"/>
	<polygon style="fill:#FFAF46;" points="315.733,264.533 298.667,264.533 298.667,281.6 375.467,281.6 375.467,264.533 
		366.933,264.533 366.933,230.4 349.867,230.4 349.867,264.533 332.8,264.533 332.8,230.4 298.667,230.4 298.667,247.467 
		315.733,247.467 	"/>
	<rect x="281.6" y="247.467" style="fill:#FFAF46;" width="17.067" height="17.067"/>
	<polygon style="fill:#FFAF46;" points="384,221.867 384,204.8 375.467,204.8 375.467,179.2 384,179.2 384,162.133 341.333,162.133 
		341.333,179.2 358.4,179.2 358.4,204.8 341.333,204.8 341.333,221.867 	"/>
</g>
<g>
</g>
<g>
</g>
<g>
</g>
<g>
</g>
<g>
</g>
<g>
</g>
<g>
</g>
<g>
</g>
<g>
</g>
<g>
</g>
<g>
</g>
<g>
</g>
<g>
</g>
<g>
</g>
<g>
</g>
</svg>
