<svg height="480pt" viewBox="0 -16 480 480" width="480pt" xmlns="http://www.w3.org/2000/svg"><path d="m104 8h336v432h-336zm0 0" fill="#ccdce5"/><path d="m152 328h240v64h-240zm0 0" fill="#0093ba"/><path d="m192 224c0 48.601562-39.398438 88-88 88s-88-39.398438-88-88 39.398438-88 88-88 88 39.398438 88 88zm0 0" fill="#ffc119"/><path d="m151.59375 150.046875c22.453125 34.800781 17.574219 80.550781-11.710938 109.835937-29.285156 29.285157-75.035156 34.164063-109.835937 11.710938 19.441406 30.238281 55.332031 45.605469 90.632813 38.800781 35.300781-6.808593 62.90625-34.414062 69.714843-69.714843 6.804688-35.300782-8.5625-71.191407-38.800781-90.632813zm0 0" fill="#faac2b"/><path d="m24 312h144c8.835938 0 16 7.164062 16 16s-7.164062 16-16 16h-144c-8.835938 0-16-7.164062-16-16s7.164062-16 16-16zm0 0" fill="#d18d29"/><path d="m48 344h144c8.835938 0 16 7.164062 16 16s-7.164062 16-16 16h-144c-8.835938 0-16-7.164062-16-16s7.164062-16 16-16zm0 0" fill="#ffc119"/><path d="m32 376h144c8.835938 0 16 7.164062 16 16s-7.164062 16-16 16h-144c-8.835938 0-16-7.164062-16-16s7.164062-16 16-16zm0 0" fill="#d18d29"/><path d="m48 408h144c8.835938 0 16 7.164062 16 16s-7.164062 16-16 16h-144c-8.835938 0-16-7.164062-16-16s7.164062-16 16-16zm0 0" fill="#ffc119"/><path d="m456 88h-272l-32-16 32-16h272c8.835938 0 16 7.164062 16 16s-7.164062 16-16 16zm0 0" fill="#0093ba"/><path d="m184 56-32 16 32 16h56v-32zm0 0" fill="#047fa7"/><path d="m1.601562 147.199219 12.796876 9.601562c16.429687-21.941406 40.34375-37.085937 67.203124-42.5625l-3.203124-15.6875c-30.691407 6.269531-58.015626 23.578125-76.796876 48.648438zm0 0"/><path d="m138.695312 220.273438c4.871094-6.703126 6.492188-15.230469 4.421876-23.253907-2.066407-8.023437-7.613282-14.703125-15.117188-18.210937v-10.808594h-16v8h-16v-8h-16v8h-16v16h8v64h-8v16h16v8h16v-8h16v8h16v-8.40625c11.644531-1.621094 21.019531-10.386719 23.417969-21.894531 2.398437-11.511719-2.691407-23.289063-12.722657-29.425781zm-50.695312-28.273438h28c6.628906 0 12 5.371094 12 12s-5.371094 12-12 12h-28zm36 64h-36v-24h36c6.628906 0 12 5.371094 12 12s-5.371094 12-12 12zm0 0"/><path d="m192 448c12.023438.019531 22.199219-8.878906 23.777344-20.796875 1.582031-11.921875-5.921875-23.164063-17.539063-26.273437 2.347657-5.722657 2.347657-12.136719 0-17.859376 11.617188-3.109374 19.121094-14.351562 17.539063-26.273437-1.578125-11.917969-11.753906-20.816406-23.777344-20.796875h-1.472656c.949218-2.5625 1.445312-5.269531 1.472656-8 0-13.253906-10.746094-24-24-24h-11.046875c35.339844-23.371094 51.183594-67.148438 38.980469-107.722656-12.203125-40.574219-49.5625-68.351563-91.933594-68.351563s-79.730469 27.777344-91.933594 68.351563c-12.203125 40.574218 3.640625 84.351562 38.980469 107.722656h-27.046875c-13.253906 0-24 10.746094-24 24s10.746094 24 24 24h1.472656c-2.058594 5.472656-1.957031 11.527344.289063 16.929688-10.472657 2.765624-17.769531 12.238281-17.769531 23.070312s7.296874 20.304688 17.769531 23.070312c-3.003907 7.390626-2.128907 15.789063 2.335937 22.398438s11.925782 10.558594 19.902344 10.53125zm-168-224c0-44.183594 35.816406-80 80-80s80 35.816406 80 80-35.816406 80-80 80c-44.164062-.046875-79.953125-35.835938-80-80zm-8 104c0-4.417969 3.582031-8 8-8h144c4.417969 0 8 3.582031 8 8s-3.582031 8-8 8h-144c-4.417969 0-8-3.582031-8-8zm152 24h24c4.417969 0 8 3.582031 8 8s-3.582031 8-8 8h-144c-4.417969 0-8-3.582031-8-8s3.582031-8 8-8zm-136 32h144c4.417969 0 8 3.582031 8 8s-3.582031 8-8 8h-144c-4.417969 0-8-3.582031-8-8s3.582031-8 8-8zm8 40c0-4.417969 3.582031-8 8-8h144c4.417969 0 8 3.582031 8 8s-3.582031 8-8 8h-144c-4.417969 0-8-3.582031-8-8zm0 0"/><path d="m456 48h-8v-40c0-4.417969-3.582031-8-8-8h-336c-4.417969 0-8 3.582031-8 8v104h16v-96h320v32h-248c-1.242188 0-2.464844.285156-3.574219.839844l-32 16c-2.71875 1.351562-4.433593 4.125-4.433593 7.160156s1.714843 5.808594 4.433593 7.160156l32 16c1.109375.554688 2.332031.839844 3.574219.839844h221.753906l-4 16h-57.753906v16h64c3.671875 0 6.871094-2.5 7.761719-6.0625l6.476562-25.9375h9.761719v336h-200v16h208c4.417969 0 8-3.582031 8-8v-344h8c13.253906 0 24-10.746094 24-24s-10.746094-24-24-24zm-286.113281 24 16-8h46.113281v16h-46.113281zm78.113281 8v-16h165.761719l-4 16zm208 0h-29.761719l4-16h25.761719c4.417969 0 8 3.582031 8 8s-3.582031 8-8 8zm0 0"/><path d="m256 168h16v16h-16zm0 0"/><path d="m288 168h112v16h-112zm0 0"/><path d="m240 200h160v16h-160zm0 0"/><path d="m240 232h160v16h-160zm0 0"/><path d="m240 264h136v16h-136zm0 0"/><path d="m240 400h152c4.417969 0 8-3.582031 8-8v-64c0-4.417969-3.582031-8-8-8h-152v16h144v48h-144zm0 0"/><path d="m352 352h16v16h-16zm0 0"/><path d="m320 352h16v16h-16zm0 0"/><path d="m288 352h16v16h-16zm0 0"/><path d="m256 352h16v16h-16zm0 0"/><path d="m464 184h16v160h-16zm0 0"/><path d="m464 360h16v16h-16zm0 0"/></svg>